# xmcd CD database file
#
# Track frame offsets:
#	150
#	5353
#	27932
#	45018
#	64276
#	86142
#	105668
#	120143
#	138835
#	161411
#	181099
#	206087
#
# Disc length: 3024 seconds
#
# Revision: 5
# Processed by: cddbd v1.5PL3 Copyright (c) Steve Scherf et al.
# Submitted via: CDex 1.50Beta7
#
DISCID=8b0bce0c
DTITLE=林明日香 - 咲
DYEAR=2003
DGENRE=J-pop
TTITLE0=咲−序章−
TTITLE1=「母」
TTITLE2=隠し物
TTITLE3=笹舟
TTITLE4=掌 紅 蕾
TTITLE5=ake-kaze
TTITLE6=五月の空
TTITLE7=千切れ雲
TTITLE8=つゆくさ
TTITLE9=道標
TTITLE10=小さきもの
TTITLE11=自分信じて
EXTD=YEAR: 2003
EXTT0=
EXTT1=
EXTT2=
EXTT3=
EXTT4=
EXTT5=
EXTT6=
EXTT7=
EXTT8=
EXTT9=
EXTT10=
EXTT11=
PLAYORDER=
